<svg xmlns="http://www.w3.org/2000/svg" viewBox="0 0 80 80" fill="none">
  <rect width="80" height="80" rx="12" fill="#f5f5f5"/>
  <g stroke="#333" stroke-width="1.5" stroke-linecap="round" stroke-linejoin="round" fill="none">
    <!-- Bag -->
    <path d="M26 28c0 0 4-6 14-6s14 6 14 6v24a4 4 0 01-4 4H30a4 4 0 01-4-4V28z" fill="#e8e8e8"/>
    <path d="M26 28h28"/>
    <!-- Seeds -->
    <ellipse cx="35" cy="38" rx="3" ry="2" fill="#d0d0d0" stroke="#333" stroke-width="1" transform="rotate(-20 35 38)"/>
    <ellipse cx="42" cy="36" rx="3" ry="2" fill="#d0d0d0" stroke="#333" stroke-width="1" transform="rotate(15 42 36)"/>
    <ellipse cx="38" cy="44" rx="3" ry="2" fill="#d0d0d0" stroke="#333" stroke-width="1" transform="rotate(-10 38 44)"/>
    <ellipse cx="45" cy="42" rx="2.5" ry="1.8" fill="#d0d0d0" stroke="#333" stroke-width="1" transform="rotate(25 45 42)"/>
    <ellipse cx="33" cy="46" rx="2.5" ry="1.8" fill="#d0d0d0" stroke="#333" stroke-width="1"/>
  </g>
</svg>
