<svg xmlns="http://www.w3.org/2000/svg" viewBox="0 0 80 80" fill="none">
  <rect width="80" height="80" rx="12" fill="#f5f5f5"/>
  <g stroke="#333" stroke-width="1.5" stroke-linecap="round" stroke-linejoin="round" fill="none">
    <!-- Bottle -->
    <path d="M35 16h10v6l3 8v24a4 4 0 01-4 4h-8a4 4 0 01-4-4V30l3-8V16z" fill="#e8e8e8"/>
    <!-- Cap -->
    <rect x="36" y="12" width="8" height="4" rx="1" fill="#ccc" stroke="#333"/>
    <!-- Water waves -->
    <path d="M32 40c2-2 4 2 6 0s4 2 6 0" stroke="#bbb" stroke-width="1"/>
    <path d="M32 44c2-2 4 2 6 0s4 2 6 0" stroke="#bbb" stroke-width="1"/>
    <!-- Label -->
    <rect x="33" y="32" width="14" height="6" rx="1" fill="#ddd" stroke="#333"/>
  </g>
</svg>
